<svg version="1.1" id="Layer_1" xmlns="http://www.w3.org/2000/svg" xmlns:xlink="http://www.w3.org/1999/xlink" x="0px" y="0px"
	 width="100%" viewBox="0 0 1227 1318" enable-background="new 0 0 1227 1318" xml:space="preserve">
<path fill="#000000" opacity="1.000000" stroke="none" 
	d="
M762.000000,1319.000000 
	C508.000000,1319.000000 254.500000,1319.000000 1.000000,1319.000000 
	C1.000000,879.666687 1.000000,440.333344 1.000000,1.000000 
	C410.000000,1.000000 819.000000,1.000000 1228.000000,1.000000 
	C1228.000000,440.333344 1228.000000,879.666687 1228.000000,1319.000000 
	C1072.833374,1319.000000 917.666687,1319.000000 762.000000,1319.000000 
M700.562866,1047.011475 
	C702.860474,1047.340698 705.149963,1047.748291 707.457031,1047.984985 
	C715.712524,1048.831909 723.981873,1049.548950 732.231140,1050.450317 
	C742.412170,1051.562988 752.565125,1053.626831 762.754333,1053.791992 
	C775.310242,1053.995728 787.898926,1052.786377 800.458130,1051.956543 
	C808.404846,1051.431519 816.537659,1051.378662 824.210571,1049.541504 
	C840.342834,1045.679077 856.477722,1041.515747 872.164368,1036.165161 
	C913.438538,1022.086731 946.219421,996.641052 969.333069,959.563660 
	C992.034180,923.147888 1001.914001,882.518188 1004.740417,840.258972 
	C1006.696228,811.017090 1005.056885,781.659973 1000.678650,752.628174 
	C997.387695,730.805969 993.989685,708.924011 988.977417,687.456665 
	C982.863525,661.271118 975.900269,635.204346 967.646362,609.621155 
	C960.102295,586.238342 951.023926,563.281494 941.415222,540.649170 
	C925.400635,502.928467 906.140808,466.804718 885.370911,431.470093 
	C863.246765,393.831635 838.660034,357.857178 813.131042,322.481598 
	C793.730042,295.597412 768.957214,277.031647 736.176392,269.256165 
	C709.536560,262.937378 683.245056,264.608215 657.116882,270.763428 
	C634.280945,276.143005 612.294617,284.137177 591.307800,294.911621 
	C571.069397,305.301819 552.159851,317.610291 534.609314,331.992340 
	C509.130402,352.871460 487.763580,377.813843 465.770813,402.146942 
	C447.919586,421.897827 430.041779,441.647156 411.529846,460.771973 
	C393.813232,479.075134 375.675201,497.017731 356.963257,514.296692 
	C338.757050,531.108521 319.981262,547.362793 300.731232,562.968384 
	C281.417358,578.625732 262.682373,594.645752 247.141312,614.256592 
	C233.306702,631.714172 221.870956,650.505310 216.513702,672.093506 
	C207.863892,706.949768 213.747070,740.173340 231.291550,771.304932 
	C249.205933,803.092896 274.004578,829.063782 301.916016,852.045166 
	C331.518585,876.419067 363.395264,897.703552 396.722290,916.591125 
	C424.185760,932.155640 452.086029,947.046265 480.423798,960.949158 
	C525.073914,982.855225 571.153625,1001.568359 617.648193,1019.200378 
	C644.648682,1029.439575 671.026672,1041.591797 700.562866,1047.011475 
z"/>
<path fill="#00321F" opacity="1.000000" stroke="none" 
	d="
M700.145386,1046.903076 
	C671.026672,1041.591797 644.648682,1029.439575 617.648193,1019.200378 
	C571.153625,1001.568359 525.073914,982.855225 480.423798,960.949158 
	C452.086029,947.046265 424.185760,932.155640 396.722290,916.591125 
	C363.395264,897.703552 331.518585,876.419067 301.916016,852.045166 
	C274.004578,829.063782 249.205933,803.092896 231.291550,771.304932 
	C213.747070,740.173340 207.863892,706.949768 216.513702,672.093506 
	C221.870956,650.505310 233.306702,631.714172 247.141312,614.256592 
	C262.682373,594.645752 281.417358,578.625732 300.731232,562.968384 
	C319.981262,547.362793 338.757050,531.108521 356.963257,514.296692 
	C375.675201,497.017731 393.813232,479.075134 411.529846,460.771973 
	C430.041779,441.647156 447.919586,421.897827 465.770813,402.146942 
	C487.763580,377.813843 509.130402,352.871460 534.609314,331.992340 
	C552.159851,317.610291 571.069397,305.301819 591.307800,294.911621 
	C612.294617,284.137177 634.280945,276.143005 657.116882,270.763428 
	C683.245056,264.608215 709.536560,262.937378 736.176392,269.256165 
	C768.957214,277.031647 793.730042,295.597412 813.131042,322.481598 
	C838.660034,357.857178 863.246765,393.831635 885.370911,431.470093 
	C906.140808,466.804718 925.400635,502.928467 941.415222,540.649170 
	C951.023926,563.281494 960.102295,586.238342 967.646362,609.621155 
	C975.900269,635.204346 982.863525,661.271118 988.977417,687.456665 
	C993.989685,708.924011 997.387695,730.805969 1000.678650,752.628174 
	C1005.056885,781.659973 1006.696228,811.017090 1004.740417,840.258972 
	C1001.914001,882.518188 992.034180,923.147888 969.333069,959.563660 
	C946.219421,996.641052 913.438538,1022.086731 872.164368,1036.165161 
	C856.477722,1041.515747 840.342834,1045.679077 824.210571,1049.541504 
	C816.537659,1051.378662 808.404846,1051.431519 800.458130,1051.956543 
	C787.898926,1052.786377 775.310242,1053.995728 762.754333,1053.791992 
	C752.565125,1053.626831 742.412170,1051.562988 732.231140,1050.450317 
	C723.981873,1049.548950 715.712524,1048.831909 707.457031,1047.984985 
	C705.149963,1047.748291 702.860474,1047.340698 700.145386,1046.903076 
M867.664368,920.034424 
	C868.020691,918.925598 868.319336,917.794312 868.741760,916.711304 
	C877.780457,893.539062 882.013245,869.490723 882.030945,844.648499 
	C882.033936,840.499756 882.510681,836.353516 882.656189,832.202209 
	C883.069702,820.400208 884.053101,808.576172 883.676880,796.797058 
	C882.807068,769.563110 881.308228,742.348572 879.969910,715.130798 
	C879.651733,708.659119 879.142151,702.185303 878.407349,695.748169 
	C876.731201,681.065063 874.972168,666.389404 873.036377,651.738525 
	C871.338989,638.892273 869.789612,626.001709 867.387085,613.279480 
	C864.397827,597.450623 860.880920,581.706238 857.080261,566.049561 
	C852.147949,545.730957 847.535400,525.276428 841.286560,505.350342 
	C833.234680,479.674896 824.076721,454.324402 814.698914,429.092682 
	C804.608521,401.943817 792.802856,375.516510 777.390381,350.880737 
	C766.503174,333.478333 755.039185,316.423401 738.349609,303.902191 
	C719.432678,289.709900 698.989441,280.921051 674.380127,285.756592 
	C658.274841,288.921143 643.696289,295.329559 631.502747,305.811584 
	C606.656372,327.170471 581.974060,348.795868 558.383240,371.515015 
	C540.078430,389.143402 523.345215,408.428528 506.254700,427.286469 
	C486.006226,449.628967 467.902802,473.709747 451.300903,498.835602 
	C427.290955,535.173035 406.564819,573.337097 392.167389,614.557434 
	C385.769623,632.874512 380.761871,651.713562 375.873108,670.510803 
	C371.262970,688.236572 368.646057,706.338928 368.940399,724.761597 
	C369.067413,732.713074 368.971985,740.667908 369.000275,748.621155 
	C369.070312,768.291321 373.304474,787.255920 379.566986,805.721680 
	C388.078461,830.818665 402.286102,852.618469 419.859955,872.319275 
	C441.421082,896.489807 464.833923,918.620178 491.131317,937.630188 
	C516.183838,955.740356 542.907593,970.879883 571.336914,982.985291 
	C597.083740,993.948425 623.587280,1002.580383 650.944885,1008.587585 
	C667.688599,1012.264099 684.513916,1015.469360 701.677856,1015.903198 
	C724.625488,1016.483337 747.085693,1013.401306 768.869751,1005.819824 
	C793.437561,997.269348 815.266418,984.061951 834.547363,966.779907 
	C848.858704,953.952271 859.348022,938.168884 867.664368,920.034424 
z"/>
<path fill="#000000" opacity="1.000000" stroke="none" 
	d="
M867.516113,920.386597 
	C859.348022,938.168884 848.858704,953.952271 834.547363,966.779907 
	C815.266418,984.061951 793.437561,997.269348 768.869751,1005.819824 
	C747.085693,1013.401306 724.625488,1016.483337 701.677856,1015.903198 
	C684.513916,1015.469360 667.688599,1012.264099 650.944885,1008.587585 
	C623.587280,1002.580383 597.083740,993.948425 571.336914,982.985291 
	C542.907593,970.879883 516.183838,955.740356 491.131317,937.630188 
	C464.833923,918.620178 441.421082,896.489807 419.859955,872.319275 
	C402.286102,852.618469 388.078461,830.818665 379.566986,805.721680 
	C373.304474,787.255920 369.070312,768.291321 369.000275,748.621155 
	C368.971985,740.667908 369.067413,732.713074 368.940399,724.761597 
	C368.646057,706.338928 371.262970,688.236572 375.873108,670.510803 
	C380.761871,651.713562 385.769623,632.874512 392.167389,614.557434 
	C406.564819,573.337097 427.290955,535.173035 451.300903,498.835602 
	C467.902802,473.709747 486.006226,449.628967 506.254700,427.286469 
	C523.345215,408.428528 540.078430,389.143402 558.383240,371.515015 
	C581.974060,348.795868 606.656372,327.170471 631.502747,305.811584 
	C643.696289,295.329559 658.274841,288.921143 674.380127,285.756592 
	C698.989441,280.921051 719.432678,289.709900 738.349609,303.902191 
	C755.039185,316.423401 766.503174,333.478333 777.390381,350.880737 
	C792.802856,375.516510 804.608521,401.943817 814.698914,429.092682 
	C824.076721,454.324402 833.234680,479.674896 841.286560,505.350342 
	C847.535400,525.276428 852.147949,545.730957 857.080261,566.049561 
	C860.880920,581.706238 864.397827,597.450623 867.387085,613.279480 
	C869.789612,626.001709 871.338989,638.892273 873.036377,651.738525 
	C874.972168,666.389404 876.731201,681.065063 878.407349,695.748169 
	C879.142151,702.185303 879.651733,708.659119 879.969910,715.130798 
	C881.308228,742.348572 882.807068,769.563110 883.676880,796.797058 
	C884.053101,808.576172 883.069702,820.400208 882.656189,832.202209 
	C882.510681,836.353516 882.033936,840.499756 882.030945,844.648499 
	C882.013245,869.490723 877.780457,893.539062 868.741760,916.711304 
	C868.319336,917.794312 868.020691,918.925598 867.516113,920.386597 
z"/>
</svg>